<?xml version="1.0" encoding="utf-8"?>
<!-- Svg Vector Icons : http://www.onlinewebfonts.com/icon -->
<!DOCTYPE svg PUBLIC "-//W3C//DTD SVG 1.1//EN" "http://www.w3.org/Graphics/SVG/1.1/DTD/svg11.dtd">
<svg version="1.1" xmlns="http://www.w3.org/2000/svg" xmlns:xlink="http://www.w3.org/1999/xlink" x="0px" y="0px" viewBox="0 0 1000 1000" enable-background="new 0 0 1000 1000" xml:space="preserve">
<metadata> Svg Vector Icons : http://www.onlinewebfonts.com/icon </metadata>
<g><path d="M500,10C229.4,10,10,229.4,10,500c0,270.6,219.4,490,490,490c270.6,0,490-219.4,490-490C990,229.4,770.6,10,500,10z M714.4,380.9h-6c0,0-17.9,0-17.9,17.9c0,17.9,0,202.5,0,202.5s0,17.9,17.9,17.9h6v47.6H571.5v-47.6h23.8V397.6h-2.4l-73,269.2h-64.3l-72.3-269.2h-2.4v221.5h23.8v47.6H285.6v-47.6h6c0,0,17.9,0,17.9-17.9c0-17.9,0-202.5,0-202.5s0-17.9-17.9-17.9h-6v-47.6h158l55.4,206.3h1.8l55.9-206.3h157.5V380.9z"/></g>
</svg>